<mxfile host="app.diagrams.net" modified="2023-04-20T15:18:03.580Z" agent="Mozilla/5.0 (X11; Linux x86_64) AppleWebKit/537.36 (KHTML, like Gecko) Chrome/112.0.0.0 Safari/537.36" version="21.2.1" etag="RpD1-ruub5RvnarcJS2v" type="github">
  <diagram name="Page-1" id="dr6T8ekn_CmlX9sgDNha">
    <mxGraphModel>
      <root>
        <mxCell id="0" />
        <mxCell id="1" parent="0" />
      </root>
    </mxGraphModel>
  </diagram>
</mxfile>
